<svg width="17" height="16" viewBox="0 0 17 16" fill="none" xmlns="http://www.w3.org/2000/svg">
<mask id="mask0_154_6531" style="mask-type:alpha" maskUnits="userSpaceOnUse" x="0" y="0" width="17" height="16">
<g clip-path="url(#clip0_154_6531)">
<mask id="mask1_154_6531" style="mask-type:alpha" maskUnits="userSpaceOnUse" x="1" y="2" width="15" height="12">
<path d="M1.86781 7.4996C1.89996 7.48388 1.93213 7.46894 1.96347 7.45479C2.50843 7.2079 3.06062 6.97675 3.612 6.74559C3.64174 6.74559 3.69156 6.71179 3.7197 6.70078C3.7623 6.68269 3.8049 6.6654 3.8475 6.64731C3.92949 6.61272 4.01148 6.57891 4.09266 6.54432C4.25662 6.47591 4.41978 6.4075 4.58375 6.3391L5.56515 5.9279C6.21941 5.65428 6.8745 5.37988 7.52877 5.10627C8.18303 4.83265 8.8381 4.55825 9.49237 4.28464C10.1466 4.01102 10.8017 3.73663 11.456 3.46301C12.1102 3.1894 12.7653 2.915 13.4196 2.64138C13.5651 2.58005 13.7226 2.48885 13.8785 2.46211C14.0095 2.43931 14.1373 2.39529 14.2692 2.37091C14.5191 2.32452 14.7948 2.30566 15.0343 2.40708C15.1171 2.44246 15.1935 2.492 15.257 2.55411C15.5608 2.84817 15.5182 3.33092 15.4539 3.74448C15.0062 6.62687 14.5585 9.51004 14.11 12.3924C14.0489 12.7879 13.9653 13.2219 13.6462 13.4719C13.3762 13.6834 12.992 13.707 12.6584 13.6174C12.3248 13.527 12.0307 13.3375 11.7421 13.1512C10.5453 12.3759 9.34769 11.6007 8.15088 10.8254C7.86635 10.6414 7.54967 10.4009 7.55288 10.0667C7.55449 9.86542 7.67746 9.68616 7.80284 9.52655C8.84292 8.19937 10.3436 7.28732 11.46 6.02146C11.6175 5.84298 11.7413 5.52062 11.5251 5.41762C11.3965 5.35629 11.2486 5.43963 11.1312 5.51905C9.65552 6.52151 8.18062 7.52476 6.7049 8.52723C6.22345 8.85431 5.71868 9.19082 5.13836 9.27102C4.61913 9.34336 4.09668 9.20183 3.59432 9.05716C3.17315 8.93608 2.75276 8.81185 2.334 8.68369C2.11136 8.61607 1.88148 8.54295 1.70947 8.38964C1.53746 8.23632 1.43861 7.97843 1.5423 7.774C1.60741 7.64584 1.7336 7.56486 1.86622 7.49882L1.86781 7.4996Z" fill="#1A1A1A"/>
</mask>
<g mask="url(#mask1_154_6531)">
<rect x="0.5" width="16" height="16" fill="#868686"/>
</g>
</g>
</mask>
<g mask="url(#mask0_154_6531)">
<rect x="0.5" width="15.9999" height="15.9999" fill="#868686"/>
</g>
<defs>
<clipPath id="clip0_154_6531">
<rect width="16" height="15.9997" fill="white" transform="translate(0.5)"/>
</clipPath>
</defs>
</svg>
