<svg width="17" height="16" viewBox="0 0 17 16" fill="none" xmlns="http://www.w3.org/2000/svg">
<mask id="mask0_154_6510" style="mask-type:alpha" maskUnits="userSpaceOnUse" x="0" y="0" width="17" height="16">
<path d="M15.1666 7.99999C15.1666 8.87546 14.9942 9.74236 14.6591 10.5512C14.3241 11.36 13.833 12.0949 13.214 12.714C12.5949 13.333 11.86 13.8241 11.0512 14.1591C10.2424 14.4942 9.37546 14.6666 8.49999 14.6666M15.1666 7.99999C15.1666 7.12451 14.9942 6.25762 14.6591 5.44878C14.3241 4.63995 13.833 3.90503 13.214 3.28598C12.5949 2.66693 11.86 2.17587 11.0512 1.84084C10.2424 1.50581 9.37546 1.33337 8.49999 1.33337M15.1666 7.99999L1.83337 7.99998M8.49999 14.6666C7.62451 14.6666 6.75761 14.4942 5.94878 14.1591C5.13995 13.8241 4.40503 13.333 3.78598 12.714C3.16693 12.0949 2.67587 11.36 2.34084 10.5512C2.00581 9.74236 1.83337 8.87546 1.83337 7.99998M8.49999 14.6666C8.85017 14.6666 9.19693 14.4942 9.52047 14.1591C9.844 13.8241 10.138 13.333 10.3856 12.714C10.6332 12.0949 10.8296 11.36 10.9636 10.5512C11.0977 9.74236 11.1666 8.87546 11.1666 7.99999C11.1666 7.12451 11.0977 6.25762 10.9636 5.44878C10.8296 4.63995 10.6332 3.90503 10.3856 3.28598C10.138 2.66693 9.844 2.17587 9.52047 1.84084C9.19693 1.50581 8.85017 1.33337 8.49999 1.33337M8.49999 14.6666C8.1498 14.6666 7.80304 14.4942 7.4795 14.1591C7.15597 13.8241 6.862 13.333 6.61438 12.714C6.36676 12.0949 6.17034 11.36 6.03633 10.5512C5.90232 9.74236 5.83334 8.87546 5.83334 7.99998C5.83334 7.12451 5.90232 6.25761 6.03633 5.44878C6.17034 4.63995 6.36676 3.90503 6.61438 3.28598C6.862 2.66693 7.15597 2.17587 7.47951 1.84084C7.80304 1.50581 8.1498 1.33337 8.49999 1.33337M1.83337 7.99998C1.83337 7.12451 2.00581 6.25761 2.34084 5.44878C2.67587 4.63995 3.16693 3.90503 3.78598 3.28598C4.40503 2.66693 5.13995 2.17587 5.94878 1.84084C6.75762 1.50581 7.62451 1.33337 8.49999 1.33337" stroke="#EDEDED" stroke-width="1.3" stroke-linecap="round"/>
</mask>
<g mask="url(#mask0_154_6510)">
<rect x="0.5" width="15.9999" height="15.9999" fill="#868686"/>
</g>
</svg>
